<svg xmlns="http://www.w3.org/2000/svg" viewBox="0 0 24 24">
  <style>
    g {
      display: none;
      stroke: #000000de;
      stroke-width: 1.6;
      stroke-linecap: round;
      stroke-Linejoin: round;
      fill: none;
      }
    g:target {
      display: inline;
    }
  </style>
  <g id="tabler-adjustments">
    <path stroke="none" d="M0 0h24v24H0z" fill="none"/>
    <path d="M4 10a2 2 0 1 0 4 0a2 2 0 0 0 -4 0" />
    <path d="M6 4v4" />
    <path d="M6 12v8" />
    <path d="M10 16a2 2 0 1 0 4 0a2 2 0 0 0 -4 0" />
    <path d="M12 4v10" />
    <path d="M12 18v2" />
    <path d="M16 7a2 2 0 1 0 4 0a2 2 0 0 0 -4 0" />
    <path d="M18 4v1" />
    <path d="M18 9v11" />
  </g>
  <g id="tabler-check">
    <path stroke="none" d="M0 0h24v24H0z" fill="none"></path>
    <path d="M5 12l5 5l10 -10"></path>
  </g>
  <g id="tabler-circle-dot">
    <path stroke="none" d="M0 0h24v24H0z" fill="none" />
    <path d="M12 12m-1 0a1 1 0 1 0 2 0a1 1 0 1 0 -2 0" />
    <path d="M12 12m-9 0a9 9 0 1 0 18 0a9 9 0 1 0 -18 0" />
  </g>
  <g id="tabler-info-circle">
    <path stroke="none" d="M0 0h24v24H0z" fill="none"/>
    <path d="M3 12a9 9 0 1 0 18 0a9 9 0 0 0 -18 0" />
    <path d="M12 9h.01" />
    <path d="M11 12h1v4h1" />
  </g>
  <g id="tabler-settings">
    <path stroke="none" d="M0 0h24v24H0z" fill="none"/>
    <path d="M10.325 4.317c.426 -1.756 2.924 -1.756 3.35 0a1.724 1.724 0 0 0 2.573 1.066c1.543 -.94 3.31 .826 2.37 2.37a1.724 1.724 0 0 0 1.065 2.572c1.756 .426 1.756 2.924 0 3.35a1.724 1.724 0 0 0 -1.066 2.573c.94 1.543 -.826 3.31 -2.37 2.37a1.724 1.724 0 0 0 -2.572 1.065c-.426 1.756 -2.924 1.756 -3.35 0a1.724 1.724 0 0 0 -2.573 -1.066c-1.543 .94 -3.31 -.826 -2.37 -2.37a1.724 1.724 0 0 0 -1.065 -2.572c-1.756 -.426 -1.756 -2.924 0 -3.35a1.724 1.724 0 0 0 1.066 -2.573c-.94 -1.543 .826 -3.31 2.37 -2.37c1 .608 2.296 .07 2.572 -1.065z" />
    <path d="M9 12a3 3 0 1 0 6 0a3 3 0 0 0 -6 0" />
  </g>
  <g id="tabler-square-rounded-chevron-down">
    <path d="M15 11l-3 3l-3 -3" />
    <path d="M12 3c7.2 0 9 1.8 9 9s-1.8 9 -9 9s-9 -1.8 -9 -9s1.8 -9 9 -9z" />
  </g>

</svg>
