<svg width="288" height="101" viewBox="0 0 288 101" fill="none" xmlns="http://www.w3.org/2000/svg">
<rect x="1.84741" y="1.56635" width="284.67" height="98" rx="9" stroke="#78909C" stroke-width="2"/>
<path d="M136.694 74.6927L134.953 70.3172H124.146L122.405 74.6927H116.421L126.539 49.2183H132.56L142.678 74.6927H136.694ZM125.85 66.0529H133.249L129.549 56.7827L125.85 66.0529Z" fill="#78909C"/>
<path d="M154.356 49.2183C157.112 49.2183 159.578 49.7745 161.754 50.8498C163.93 51.9252 165.635 53.4455 166.868 55.3737C168.064 57.3019 168.681 59.4896 168.681 61.9369C168.681 64.3843 168.064 66.572 166.868 68.5002C165.635 70.4655 163.93 71.9858 161.754 73.0612C159.578 74.1365 157.112 74.6927 154.356 74.6927H145.434V49.2183H154.356ZM155.045 69.7239C156.604 69.7239 158.019 69.3902 159.252 68.7227C160.485 68.0553 161.464 67.1282 162.153 65.9417C162.842 64.7922 163.168 63.4573 163.168 61.9369C163.168 60.4537 162.842 59.1188 162.153 57.9322C161.464 56.7456 160.485 55.8186 159.252 55.1512C158.019 54.5208 156.604 54.1871 155.045 54.1871H150.765V69.7239H155.045Z" fill="#78909C"/>
<path d="M180.758 49.2183C183.514 49.2183 185.98 49.7745 188.156 50.8498C190.332 51.9252 192.037 53.4455 193.27 55.3737C194.466 57.3019 195.083 59.4896 195.083 61.9369C195.083 64.3843 194.466 66.572 193.27 68.5002C192.037 70.4655 190.332 71.9858 188.156 73.0612C185.98 74.1365 183.514 74.6927 180.758 74.6927H171.836V49.2183H180.758ZM181.447 69.7239C183.006 69.7239 184.421 69.3902 185.654 68.7227C186.887 68.0553 187.866 67.1282 188.555 65.9417C189.244 64.7922 189.57 63.4573 189.57 61.9369C189.57 60.4537 189.244 59.1188 188.555 57.9322C187.866 56.7456 186.887 55.8186 185.654 55.1512C184.421 54.5208 183.006 54.1871 181.447 54.1871H177.167V69.7239H181.447Z" fill="#78909C"/>
<path d="M207.196 62.1965H197.259V66.7945H207.196V62.1965Z" fill="#78909C"/>
<path d="M222.61 75.1377C220.252 75.1377 218.076 74.5444 216.045 73.3207C214.015 72.1342 212.383 70.5397 211.186 68.5003C209.989 66.4608 209.372 64.2731 209.372 61.937C209.372 59.6009 209.989 57.4131 211.186 55.3737C212.383 53.3713 214.015 51.7769 216.045 50.5532C218.076 49.3666 220.252 48.7733 222.61 48.7733C224.967 48.7733 227.143 49.3666 229.174 50.5532C231.205 51.7769 232.837 53.3713 234.034 55.3737C235.23 57.4131 235.847 59.6009 235.847 61.937C235.847 64.2731 235.23 66.4608 234.034 68.5003C232.837 70.5397 231.205 72.1342 229.174 73.3207C227.143 74.5444 224.967 75.1377 222.61 75.1377ZM222.61 70.1689C223.988 70.1689 225.257 69.7981 226.454 69.0194C227.651 68.2778 228.594 67.2766 229.283 66.0158C229.972 64.7551 230.334 63.3831 230.334 61.937C230.334 60.4908 229.972 59.1188 229.283 57.8581C228.594 56.6344 227.651 55.6332 226.454 54.8546C225.257 54.1129 223.988 53.7421 222.61 53.7421C221.268 53.7421 219.999 54.1129 218.802 54.8546C217.605 55.6332 216.626 56.6344 215.937 57.8952C215.248 59.1559 214.885 60.4908 214.885 61.937C214.885 63.3831 215.248 64.7551 215.937 66.0158C216.626 67.2766 217.605 68.2778 218.802 69.0194C219.999 69.7981 221.268 70.1689 222.61 70.1689Z" fill="#78909C"/>
<path d="M239.001 49.2183H244.332L256.373 65.6821V49.2183H261.704V74.6927H256.373L244.332 58.2289V74.6927H239.001V49.2183Z" fill="#78909C"/>
<path d="M125.27 33.9513H132.463V40.9052C131.656 41.7807 130.628 42.456 129.429 42.9563C128.206 43.4566 126.983 43.7067 125.76 43.7067C124.169 43.7067 122.702 43.3065 121.356 42.481C119.986 41.6806 118.909 40.605 118.102 39.2292C117.27 37.8535 116.879 36.3776 116.879 34.8017C116.879 33.2259 117.27 31.75 118.102 30.3743C118.909 28.9985 119.986 27.9229 121.356 27.1224C122.702 26.322 124.169 25.9218 125.76 25.9218C127.007 25.9218 128.231 26.1719 129.429 26.6722C130.628 27.1725 131.656 27.8478 132.463 28.6983L130.286 30.7745C129.772 30.1491 129.087 29.6739 128.255 29.2986C127.423 28.9485 126.591 28.7734 125.76 28.7734C124.732 28.7734 123.778 29.0485 122.897 29.5988C121.992 30.1491 121.283 30.8745 120.769 31.8001C120.255 32.7256 119.986 33.7261 119.986 34.8017C119.986 35.8773 120.255 36.8779 120.769 37.8034C121.283 38.7289 121.992 39.4794 122.897 40.0297C123.778 40.58 124.732 40.8551 125.76 40.8551C126.396 40.8551 127.056 40.7551 127.717 40.53C128.353 40.3048 128.964 40.0047 129.478 39.6044V36.5027H125.27V33.9513Z" fill="#78909C"/>
<path d="M147.655 29.0735H138.065V33.2259H146.75V36.0775H138.065V40.555H147.655V43.4066H135.007V26.2219H147.655V29.0735Z" fill="#78909C"/>
<path d="M154.775 29.0735H149.392V26.2219H163.191V29.0735H157.833V43.4066H154.775V29.0735Z" fill="#78909C"/>
<path d="M176.108 29.0735H170.726V26.2219H184.524V29.0735H179.166V43.4066H176.108V29.0735Z" fill="#78909C"/>
<path d="M198.2 26.2219H201.234V43.4066H198.2V36.0775H189.809V43.4066H186.75V26.2219H189.809V33.2259H198.2V26.2219Z" fill="#78909C"/>
<path d="M216.989 29.0735H207.399V33.2259H216.084V36.0775H207.399V40.555H216.989V43.4066H204.341V26.2219H216.989V29.0735Z" fill="#78909C"/>
<path d="M92.4712 38.1506C90.8217 34.1829 87.4808 29.8993 84.8573 28.5454C86.9925 32.7312 88.2282 36.9302 88.7004 40.0639C88.7004 40.0701 88.7028 40.0854 88.7078 40.1271C84.4162 29.4303 77.1391 25.117 71.1969 15.7254C70.8968 15.2506 70.5959 14.7744 70.3028 14.2725C70.1536 14.0162 70.0141 13.7542 69.885 13.4873C69.6381 13.0107 69.4477 12.5069 69.3175 11.9861C69.3194 11.9352 69.2817 11.8908 69.2313 11.8844C69.2081 11.8777 69.1833 11.8777 69.1601 11.8844C69.1547 11.8863 69.1468 11.8924 69.1411 11.8946C69.1328 11.898 69.1222 11.9055 69.1133 11.9104C69.1176 11.9047 69.1264 11.8919 69.1291 11.8889C59.5951 17.4726 56.3608 27.8017 56.0636 32.9695C52.2569 33.2312 48.616 34.6342 45.618 36.9948C45.3041 36.7296 44.9759 36.4818 44.635 36.2525C43.77 33.2262 43.7332 30.0225 44.5285 26.9772C40.6296 28.7524 37.5971 31.5586 35.3925 34.0365H35.375C33.8704 32.1308 33.9765 25.8444 34.0623 24.5319C34.0443 24.4505 32.9399 25.1051 32.7952 25.2038C31.4676 26.1516 30.2264 27.2149 29.0862 28.3813C27.7887 29.6972 26.6033 31.1188 25.542 32.6316C25.542 32.6335 25.5409 32.6357 25.5403 32.6376C25.5403 32.6355 25.5414 32.6335 25.542 32.6316C23.1016 36.09 21.3706 39.998 20.4494 44.1294C20.4312 44.2117 20.4159 44.2969 20.3982 44.3799C20.3268 44.714 20.0697 46.3855 20.0247 46.7488C20.0212 46.7767 20.0197 46.8036 20.0163 46.8315C19.6839 48.5597 19.4781 50.3098 19.4004 52.0679C19.4004 52.1326 19.3965 52.1967 19.3965 52.2616C19.3971 73.2205 36.39 90.2105 57.3505 90.2105C76.1224 90.2105 91.7089 76.5833 94.7604 58.6837C94.8246 58.1979 94.8761 57.7096 94.9328 57.2196C95.6872 50.7114 94.8491 43.8709 92.4712 38.1506ZM48.7265 67.8556C48.904 67.9404 49.0708 68.0331 49.253 68.1144C49.2606 68.1196 49.271 68.1255 49.2788 68.1302C49.0932 68.0414 48.9092 67.95 48.7265 67.8556ZM88.7108 40.1364L88.7058 40.0996C88.7077 40.113 88.7101 40.1271 88.7121 40.1405L88.7108 40.1364Z" fill="url(#paint0_linear_45_2)"/>
<path d="M92.4713 38.1506C90.8217 34.1829 87.4808 29.8993 84.8574 28.5454C86.9925 32.7312 88.2283 36.9302 88.7005 40.0639C88.7005 40.0547 88.7022 40.0715 88.7062 40.0996C88.7081 40.113 88.7104 40.1271 88.7125 40.1405C92.2935 49.8482 90.3426 59.7198 87.5314 65.7521C83.1822 75.0856 72.6524 84.6512 56.171 84.1846C38.3641 83.6804 22.6767 70.4678 19.7482 53.1626C19.2146 50.4336 19.7482 49.048 20.0167 46.8323C19.6896 48.5404 19.565 49.0338 19.4008 52.0686C19.4008 52.1334 19.3969 52.1975 19.3969 52.2624C19.3972 73.2205 36.39 90.2105 57.3506 90.2105C76.1225 90.2105 91.709 76.5833 94.7604 58.6837C94.8247 58.1979 94.8762 57.7096 94.9329 57.2196C95.6873 50.7114 94.8492 43.8709 92.4713 38.1506Z" fill="url(#paint1_radial_45_2)"/>
<path d="M92.4713 38.1506C90.8217 34.1829 87.4808 29.8993 84.8574 28.5454C86.9925 32.7312 88.2283 36.9302 88.7005 40.0639C88.7005 40.0547 88.7022 40.0715 88.7062 40.0996C88.7081 40.113 88.7104 40.1271 88.7125 40.1405C92.2935 49.8482 90.3426 59.7198 87.5314 65.7521C83.1822 75.0856 72.6524 84.6512 56.171 84.1846C38.3641 83.6804 22.6767 70.4678 19.7482 53.1626C19.2146 50.4336 19.7482 49.048 20.0167 46.8323C19.6896 48.5404 19.565 49.0338 19.4008 52.0686C19.4008 52.1334 19.3969 52.1975 19.3969 52.2624C19.3972 73.2205 36.39 90.2105 57.3506 90.2105C76.1225 90.2105 91.709 76.5833 94.7604 58.6837C94.8247 58.1979 94.8762 57.7096 94.9329 57.2196C95.6873 50.7114 94.8492 43.8709 92.4713 38.1506Z" fill="url(#paint2_radial_45_2)"/>
<path d="M74.0272 42.6115C74.1099 42.6696 74.1851 42.7274 74.263 42.7852C73.3105 41.0948 72.1243 39.5469 70.7396 38.1877C58.9418 26.3912 67.646 12.6097 69.114 11.9097C69.1182 11.904 69.1271 11.8912 69.1297 11.8882C59.5958 17.4719 56.3614 27.801 56.0642 32.9688C56.5064 32.9382 56.9473 32.9011 57.3974 32.9011C64.5121 32.9011 70.7088 36.8129 74.0272 42.6115Z" fill="url(#paint3_radial_45_2)"/>
<path d="M57.4213 44.9669C57.3592 45.9109 54.0237 49.1666 52.8572 49.1666C42.0647 49.1666 40.3129 55.6945 40.3129 55.6945C40.7909 61.1919 44.6181 65.7188 49.2532 68.1142C49.4647 68.2235 49.6787 68.3222 49.8928 68.4198C50.26 68.5823 50.6318 68.7344 51.0076 68.8756C52.5968 69.4383 54.2615 69.7594 55.9461 69.8281C74.8625 70.7153 78.5273 47.214 64.8761 40.3894C68.3721 39.7814 72.0009 41.1874 74.0274 42.6109C70.7091 36.8128 64.5123 32.901 57.3978 32.901C56.9477 32.901 56.5069 32.9381 56.0646 32.9688C52.2579 33.2304 48.6169 34.6335 45.619 36.994C46.1977 37.4835 46.8508 38.138 48.227 39.4936C50.8015 42.031 57.4073 44.6586 57.4213 44.9669Z" fill="url(#paint4_radial_45_2)"/>
<path d="M57.4213 44.9669C57.3592 45.9109 54.0237 49.1666 52.8572 49.1666C42.0647 49.1666 40.3129 55.6945 40.3129 55.6945C40.7909 61.1919 44.6181 65.7188 49.2532 68.1142C49.4647 68.2235 49.6787 68.3222 49.8928 68.4198C50.26 68.5823 50.6318 68.7344 51.0076 68.8756C52.5968 69.4383 54.2615 69.7594 55.9461 69.8281C74.8625 70.7153 78.5273 47.214 64.8761 40.3894C68.3721 39.7814 72.0009 41.1874 74.0274 42.6109C70.7091 36.8128 64.5123 32.901 57.3978 32.901C56.9477 32.901 56.5069 32.9381 56.0646 32.9688C52.2579 33.2304 48.6169 34.6335 45.619 36.994C46.1977 37.4835 46.8508 38.138 48.227 39.4936C50.8015 42.031 57.4073 44.6586 57.4213 44.9669Z" fill="url(#paint5_radial_45_2)"/>
<path d="M43.8487 35.7316C44.113 35.9022 44.3752 36.0759 44.6353 36.2528C43.7703 33.2265 43.7335 30.0228 44.5288 26.9775C40.63 28.7527 37.5975 31.5589 35.3928 34.0368C35.5752 34.0316 41.0804 33.9325 43.8487 35.7316Z" fill="url(#paint6_radial_45_2)"/>
<path d="M19.7481 53.1626C22.6765 70.4678 38.364 83.6804 56.1709 84.1846C72.6522 84.6511 83.1821 75.0849 87.5312 65.7521C90.3423 59.7193 92.2933 49.849 88.7124 40.1405L88.7111 40.1364L88.706 40.0996C88.7021 40.0715 88.6997 40.0547 88.7004 40.0639C88.7004 40.07 88.7027 40.0854 88.7078 40.127C90.0539 48.9174 85.5824 57.4332 78.5925 63.1912L78.5715 63.2406C64.9511 74.3307 51.9176 69.9316 49.2787 68.131C49.0933 68.0417 48.909 67.95 48.726 67.8557C40.7851 64.0609 37.5047 56.8265 38.2081 50.6222C31.503 50.6222 29.2167 44.967 29.2167 44.967C29.2167 44.967 35.2367 40.6747 43.1708 44.4078C50.5191 47.8653 57.4201 44.9673 57.4209 44.967C57.4068 44.6587 50.8011 42.0312 48.226 39.4939C46.85 38.1383 46.1966 37.4846 45.618 36.9943C45.304 36.7291 44.9759 36.4813 44.6349 36.252C44.3745 36.0755 44.1123 35.9017 43.8483 35.7309C41.0801 33.9318 35.5748 34.0308 35.3924 34.0355H35.3749C33.8703 32.1298 33.9765 25.8434 34.0622 24.5309C34.0442 24.4496 32.9398 25.1042 32.7952 25.2029C31.4675 26.1506 30.2264 27.2139 29.0861 28.3803C27.7886 29.6965 26.6031 31.1185 25.5419 32.6316C25.5419 32.6335 25.5408 32.6357 25.5402 32.6376C25.5402 32.6355 25.5413 32.6335 25.5419 32.6316C23.1015 36.09 21.3705 39.998 20.4493 44.1294C20.4311 44.2116 19.0832 50.1056 19.7481 53.1626Z" fill="url(#paint7_radial_45_2)"/>
<path d="M70.7396 38.1876C72.1243 39.5469 73.3105 41.0947 74.263 42.7851C74.4719 42.9421 74.6671 43.0986 74.8328 43.2513C83.4369 51.1792 78.9287 62.392 78.5925 63.1911C85.5825 57.4331 90.054 48.9172 88.7078 40.1269C84.4162 29.4303 77.1391 25.117 71.1968 15.7254C70.8968 15.2506 70.5959 14.7744 70.3028 14.2725C70.1536 14.0162 70.0141 13.7542 69.8849 13.4873C69.6381 13.0107 69.4476 12.5069 69.3175 11.9861C69.3194 11.9352 69.2817 11.8908 69.2313 11.8844C69.2081 11.8777 69.1833 11.8777 69.1601 11.8844C69.1547 11.8863 69.1468 11.8924 69.1411 11.8946C69.1327 11.898 69.1222 11.9055 69.1133 11.9104C67.646 12.6097 58.9418 26.3913 70.7396 38.1876Z" fill="url(#paint8_radial_45_2)"/>
<path d="M74.8327 43.2514C74.667 43.0986 74.4718 42.9421 74.2629 42.7852C74.1857 42.727 74.1099 42.6692 74.0271 42.6114C72.0006 41.1879 68.3718 39.7819 64.8758 40.3899C78.527 47.2145 74.8622 70.7158 55.9458 69.8286C54.2612 69.7599 52.5965 69.4388 51.0073 68.8761C50.6315 68.7348 50.2597 68.5828 49.8925 68.4203C49.6784 68.3227 49.4644 68.224 49.2529 68.1148C49.2605 68.12 49.2709 68.1258 49.2787 68.1305C51.9176 69.9309 64.9511 74.3302 78.5714 63.2402L78.5924 63.1908C78.9286 62.3926 83.4368 51.1794 74.8327 43.2514Z" fill="url(#paint9_radial_45_2)"/>
<path d="M40.3126 55.6947C40.3126 55.6947 42.0645 49.1668 52.857 49.1668C54.0238 49.1668 57.3593 45.9112 57.4211 44.9671C57.4828 44.023 50.5197 47.8653 43.1709 44.4079C35.2369 40.6748 29.2169 44.9671 29.2169 44.9671C29.2169 44.9671 31.5032 50.6223 38.2083 50.6223C37.505 56.8265 40.7855 64.0618 48.7262 67.8558C48.9037 67.9406 49.0704 68.0333 49.2527 68.1146C44.6179 65.719 40.7907 61.1921 40.3126 55.6947Z" fill="url(#paint10_radial_45_2)"/>
<path d="M92.4706 38.1506C90.8211 34.1829 87.4801 29.8993 84.8567 28.5454C86.9918 32.7312 88.2276 36.9302 88.6998 40.0639C88.6998 40.0701 88.7022 40.0854 88.7072 40.1271C84.4156 29.4303 77.1385 25.117 71.1962 15.7254C70.8962 15.2506 70.5953 14.7744 70.3022 14.2725C70.153 14.0162 70.0135 13.7542 69.8843 13.4873C69.6375 13.0107 69.447 12.5069 69.3169 11.9861C69.3188 11.9352 69.2811 11.8908 69.2307 11.8844C69.2075 11.8777 69.1827 11.8777 69.1595 11.8844C69.1541 11.8863 69.1462 11.8924 69.1405 11.8946C69.1321 11.898 69.1216 11.9055 69.1127 11.9104C69.117 11.9047 69.1258 11.8919 69.1285 11.8889C59.5945 17.4726 56.3602 27.8017 56.063 32.9695C56.5052 32.9389 56.9461 32.9018 57.3962 32.9018C64.5112 32.9018 70.7079 36.8136 74.0258 42.6117C71.9993 41.1882 68.3705 39.7822 64.8744 40.3902C78.5257 47.2148 74.8609 70.7161 55.9445 69.8288C54.2599 69.7601 52.5952 69.4391 51.006 68.8764C50.6301 68.7351 50.2584 68.5831 49.8912 68.4206C49.6771 68.323 49.4631 68.2243 49.2516 68.115C49.2592 68.1202 49.2696 68.1261 49.2774 68.1308C49.0919 68.0416 48.9076 67.9498 48.7246 67.8556C48.9021 67.9404 49.0689 68.0331 49.2511 68.1144C44.616 65.719 40.7888 61.192 40.3108 55.6946C40.3108 55.6946 42.0627 49.1668 52.8552 49.1668C54.0219 49.1668 57.3575 45.9111 57.4192 44.967C57.4052 44.6588 50.7994 42.0312 48.2243 39.4939C46.8483 38.1383 46.195 37.4847 45.6163 36.9943C45.3024 36.7291 44.9742 36.4813 44.6332 36.252C43.7683 33.2257 43.7315 30.022 44.5268 26.9767C40.6279 28.752 37.5954 31.5582 35.3908 34.036H35.3732C33.8687 32.1303 33.9748 25.8439 34.0605 24.5314C34.0425 24.4501 32.9382 25.1047 32.7935 25.2034C31.4658 26.1511 30.2247 27.2144 29.0845 28.3808C27.7874 29.6968 26.6022 31.1187 25.5414 32.6316C25.5414 32.6335 25.5403 32.6357 25.5396 32.6376C25.5396 32.6355 25.5408 32.6335 25.5414 32.6316C23.101 36.09 21.3699 39.998 20.4487 44.1294C20.4306 44.2117 20.4153 44.2969 20.3976 44.3799C20.3262 44.714 20.005 46.4097 19.9601 46.7734C19.9566 46.8013 19.9634 46.7456 19.9601 46.7734C19.6672 48.5256 19.4803 50.2939 19.4004 52.0686C19.4004 52.1334 19.3965 52.1975 19.3965 52.2624C19.3965 73.2205 36.3893 90.2105 57.3499 90.2105C76.1218 90.2105 91.7083 76.5833 94.7597 58.6837C94.824 58.1979 94.8755 57.7096 94.9322 57.2196C95.6866 50.7114 94.8485 43.8709 92.4706 38.1506ZM88.7055 40.0996C88.7074 40.113 88.7097 40.1271 88.7118 40.1405L88.7105 40.1364L88.7055 40.0996Z" fill="url(#paint11_linear_45_2)"/>
<defs>
<linearGradient id="paint0_linear_45_2" x1="85.5364" y1="24.0207" x2="26.5221" y2="84.8056" gradientUnits="userSpaceOnUse">
<stop stop-color="#FFF44F"/>
<stop offset="0.05" stop-color="#FFF44F"/>
<stop offset="0.37" stop-color="#FF980E"/>
<stop offset="0.53" stop-color="#FF3647"/>
<stop offset="0.7" stop-color="#E31587"/>
<stop offset="1" stop-color="#E31587"/>
</linearGradient>
<radialGradient id="paint1_radial_45_2" cx="0" cy="0" r="1" gradientUnits="userSpaceOnUse" gradientTransform="translate(85.7882 20.5906) scale(97.0301 97.0301)">
<stop stop-color="#FFBD4F"/>
<stop offset="0.13" stop-color="#FFBD4F"/>
<stop offset="0.28" stop-color="#FF980E"/>
<stop offset="0.47" stop-color="#FF3750"/>
<stop offset="0.78" stop-color="#EB0878"/>
<stop offset="0.86" stop-color="#E50080"/>
<stop offset="1" stop-color="#E50080"/>
</radialGradient>
<radialGradient id="paint2_radial_45_2" cx="0" cy="0" r="1" gradientUnits="userSpaceOnUse" gradientTransform="translate(56.6186 53.2746) scale(97.0301 97.0301)">
<stop stop-color="#960E18"/>
<stop offset="0.3" stop-color="#960E18"/>
<stop offset="0.35" stop-color="#B11927" stop-opacity="0.74"/>
<stop offset="0.43" stop-color="#DB293D" stop-opacity="0.34"/>
<stop offset="0.5" stop-color="#F5334B" stop-opacity="0.09"/>
<stop offset="0.53" stop-color="#FF3750" stop-opacity="0"/>
<stop offset="1" stop-color="#FF3750" stop-opacity="0"/>
</radialGradient>
<radialGradient id="paint3_radial_45_2" cx="0" cy="0" r="1" gradientUnits="userSpaceOnUse" gradientTransform="translate(64.7996 8.18061) scale(43.2558 43.2558)">
<stop stop-color="#FFF44F"/>
<stop offset="0.13" stop-color="#FFF44F"/>
<stop offset="0.53" stop-color="#FF980E"/>
<stop offset="1" stop-color="#FF980E"/>
</radialGradient>
<radialGradient id="paint4_radial_45_2" cx="0" cy="0" r="1" gradientUnits="userSpaceOnUse" gradientTransform="translate(47.9863 73.5883) scale(36.9515 36.9515)">
<stop stop-color="#3A8EE6"/>
<stop offset="0.35" stop-color="#3A8EE6"/>
<stop offset="0.67" stop-color="#9059FF"/>
<stop offset="1" stop-color="#C139E6"/>
</radialGradient>
<radialGradient id="paint5_radial_45_2" cx="0" cy="0" r="1" gradientUnits="userSpaceOnUse" gradientTransform="translate(53.747 45.0949) scale(19.6212 21.8014)">
<stop stop-color="#9059FF" stop-opacity="0"/>
<stop offset="0.21" stop-color="#9059FF" stop-opacity="0"/>
<stop offset="0.97" stop-color="#6E008B" stop-opacity="0.6"/>
<stop offset="1" stop-color="#6E008B" stop-opacity="0.6"/>
</radialGradient>
<radialGradient id="paint6_radial_45_2" cx="0" cy="0" r="1" gradientUnits="userSpaceOnUse" gradientTransform="translate(54.8019 17.7022) scale(26.8984 26.8984)">
<stop stop-color="#FFE226"/>
<stop offset="0.1" stop-color="#FFE226"/>
<stop offset="0.79" stop-color="#FF7139"/>
<stop offset="1" stop-color="#FF7139"/>
</radialGradient>
<radialGradient id="paint7_radial_45_2" cx="0" cy="0" r="1" gradientUnits="userSpaceOnUse" gradientTransform="translate(79.2805 0.0563081) scale(127.964)">
<stop stop-color="#FFF44F"/>
<stop offset="0.11" stop-color="#FFF44F"/>
<stop offset="0.46" stop-color="#FF980E"/>
<stop offset="0.72" stop-color="#FF3647"/>
<stop offset="0.9" stop-color="#E31587"/>
<stop offset="1" stop-color="#E31587"/>
</radialGradient>
<radialGradient id="paint8_radial_45_2" cx="0" cy="0" r="1" gradientUnits="userSpaceOnUse" gradientTransform="translate(68.5835 2.30538) scale(178.976 178.976)">
<stop stop-color="#FFF44F"/>
<stop offset="0.3" stop-color="#FF980E"/>
<stop offset="0.57" stop-color="#FF3647"/>
<stop offset="0.74" stop-color="#E31587"/>
<stop offset="1" stop-color="#E31587"/>
</radialGradient>
<radialGradient id="paint9_radial_45_2" cx="0" cy="0" r="1" gradientUnits="userSpaceOnUse" gradientTransform="translate(55.0776 27.3769) scale(73.47 73.47)">
<stop stop-color="#FFF44F"/>
<stop offset="0.14" stop-color="#FFF44F"/>
<stop offset="0.48" stop-color="#FF980E"/>
<stop offset="0.66" stop-color="#FF3647"/>
<stop offset="0.9" stop-color="#E31587"/>
<stop offset="1" stop-color="#E31587"/>
</radialGradient>
<radialGradient id="paint10_radial_45_2" cx="0" cy="0" r="1" gradientUnits="userSpaceOnUse" gradientTransform="translate(74.1469 31.5983) scale(88.3086 88.3086)">
<stop stop-color="#FFF44F"/>
<stop offset="0.09" stop-color="#FFF44F"/>
<stop offset="0.63" stop-color="#FF980E"/>
<stop offset="1" stop-color="#FF980E"/>
</radialGradient>
<linearGradient id="paint11_linear_45_2" x1="80.0401" y1="22.8457" x2="33.0413" y2="77.6775" gradientUnits="userSpaceOnUse">
<stop stop-color="#FFF44F" stop-opacity="0.8"/>
<stop offset="0.17" stop-color="#FFF44F" stop-opacity="0.8"/>
<stop offset="0.6" stop-color="#FFF44F" stop-opacity="0"/>
<stop offset="1" stop-color="#FFF44F" stop-opacity="0"/>
</linearGradient>
</defs>
</svg>
